<svg width="1630" height="1499" viewBox="0 0 1630 1499" fill="none" xmlns="http://www.w3.org/2000/svg">
<path d="M1514.56 386.406L1367.8 473.16L1360.67 461.933V299.652L1496.22 215.96H1514.56V386.406Z" fill="#F97210"/>
<path d="M1367.8 472.14V294.549L1268.94 222.084L1219 215.96V386.406L1367.8 472.14Z" fill="#FBCB85"/>
<path d="M1367.8 131.247L1220.02 215.96L1367.8 302.714L1513.54 215.96L1367.8 131.247Z" fill="#F7962A"/>
<path d="M1428.06 434.6L1531.93 496L1536.98 488.054V373.2L1441.04 313.967H1428.06V434.6Z" fill="#F97210"/>
<path d="M1531.87 495.278V369.588L1601.84 318.301L1637.19 313.967V434.6L1531.87 495.278Z" fill="#FBCB85"/>
<path d="M1531.93 253.874L1636.52 313.83L1531.93 375.23L1428.78 313.83L1531.93 253.874Z" fill="#F7962A"/>
<path d="M1384.88 223.384L1531.64 310.138L1538.78 298.911V136.63L1403.22 52.9379H1384.88V223.384Z" fill="#F97210"/>
<path d="M1531.64 309.118V131.527L1630.5 59.0617L1680.44 52.9379V223.384L1531.64 309.118Z" fill="#FBCB85"/>
<path d="M1531.64 -31.775L1679.42 52.9379L1531.64 139.692L1385.9 52.9379L1531.64 -31.775Z" fill="#F7962A"/>
<path d="M1471.39 271.578L1367.52 332.978L1362.47 325.032V210.178L1458.4 150.945H1471.39V271.578Z" fill="#F97210"/>
<path d="M1367.57 332.256V206.566L1297.6 155.279L1262.25 150.945V271.578L1367.57 332.256Z" fill="#FBCB85"/>
<path d="M1367.52 90.8521L1262.92 150.808L1367.52 212.208L1470.67 150.808L1367.52 90.8521Z" fill="#F7962A"/>
<path d="M-31.2222 1498.81L152.612 1607.48L161.548 1593.42V1390.14L-8.2429 1285.31H-31.2222V1498.81Z" fill="#F97210"/>
<path d="M152.613 1606.2V1383.75L276.445 1292.98L339 1285.31V1498.81L152.613 1606.2Z" fill="#FBCB85"/>
<path d="M152.612 1179.2L337.723 1285.31L152.612 1393.98L-29.9452 1285.31L152.612 1179.2Z" fill="#F7962A"/>
<path d="M77.1372 1559.18L-52.9711 1636.09L-59.2958 1626.13V1482.27L60.8737 1408.07H77.1372V1559.18Z" fill="#F97210"/>
<path d="M-52.9716 1332.8L-183.983 1407.9L-52.9716 1484.81L76.2331 1407.9L-52.9716 1332.8Z" fill="#F7962A"/>
<path d="M131.222 1294.61L-52.6119 1403.28L-61.5483 1389.22V1185.94L108.243 1081.11H131.222V1294.61Z" fill="#F97210"/>
<path d="M-52.6122 975L-237.723 1081.11L-52.6122 1189.78L129.945 1081.11L-52.6122 975Z" fill="#F7962A"/>
<path d="M22.8628 1354.98L152.971 1431.89L159.296 1421.93V1278.07L39.1264 1203.87H22.8628V1354.98Z" fill="#F97210"/>
<path d="M152.906 1430.98V1273.54L240.548 1209.3L284.821 1203.87V1354.98L152.906 1430.98Z" fill="#FBCB85"/>
<path d="M152.972 1128.6L283.984 1203.7L152.972 1280.61L23.767 1203.7L152.972 1128.6Z" fill="#F7962A"/>
</svg>
